<?xml version="1.0" standalone="no"?>
<!DOCTYPE svg PUBLIC "-//W3C//DTD SVG 1.1//EN" "http://www.w3.org/Graphics/SVG/1.1/DTD/svg11.dtd" >
<svg>
<metadata>
Created by FontForge 20090622 at Sat Jun 25 22:59:56 2016
 By deploy user
Copyright 1999 Agfa Corporation. All Rights Reserved.
</metadata>
<defs>
<font id="AvantGarde-Book" horiz-adv-x="1135" >
  <font-face 
    font-family="ITC Avant Garde Gothic"
    font-weight="400"
    font-stretch="normal"
    units-per-em="2048"
    panose-1="2 11 4 2 2 2 3 2 3 4"
    ascent="1638"
    descent="-410"
    x-height="1120"
    cap-height="1640"
    bbox="-224 -505 2359 1985"
    underline-thickness="102"
    underline-position="-154"
    unicode-range="U+0020-U+2592"
  />
<missing-glyph horiz-adv-x="1022" 
d="M76 0v1137h870v-1137h-870zM332 256h358v625h-358v-625z" />
    <glyph glyph-name=".notdef" horiz-adv-x="1022" 
d="M76 0v1137h870v-1137h-870zM332 256h358v625h-358v-625z" />
    <glyph glyph-name=".null" horiz-adv-x="0" 
 />
    <glyph glyph-name="nonmarkingreturn" horiz-adv-x="567" 
 />
    <glyph glyph-name="space" unicode=" " horiz-adv-x="567" 
 />
    <glyph glyph-name="uni0021" unicode="!" horiz-adv-x="604" 
d="M227 395v1125v0h152v0v-1125h-152zM227 0v258h152v-258h-152z" />
    <glyph glyph-name="uni0022" unicode="&#x22;" horiz-adv-x="633" 
d="M400 1520h166l-24 -608h-118zM81 1520h166l-24 -608h-118z" />
    <glyph glyph-name="uni0023" unicode="#" 
d="M66 425v137h220v0l50 400v0h-215v137h236v0l59 421v0v0h142l-59 -421v0h258v0l59 421h142l-59 -421v0h170v-137h-191v0l-53 -400v0h185v-137h-203v0l-59 -425h-142l59 425v0h-258v0l-59 -425v0v0h-142v0l59 425v0h-199zM428 562v0h255v0l53 400v0h-255v0z" />
    <glyph glyph-name="uni0024" unicode="$" 
d="M144 464h152q0 -132 78 -204q79 -72 200 -72q129 0 199 77t70 196q0 102 -58 169q-57 67 -213 110l-90 25q-135 35 -215 128q-80 94 -80 231q0 141 87 241q87 101 221 124v176h152v-170q150 -15 242 -120t92 -254h-152q0 119 -74 181q-74 63 -184 63q-114 0 -173 -67
t-59 -173q0 -107 70 -159q71 -51 207 -89l71 -21q143 -41 225 -141q83 -100 83 -251q0 -158 -98 -272q-97 -114 -250 -128v-208h-152v208q-133 7 -242 114t-109 286z" />
    <glyph glyph-name="uni0025" unicode="%" horiz-adv-x="1587" 
d="M288 0l868 1520h140l-868 -1520h-140zM805 349q0 151 109 259q110 108 265 108q154 0 263 -108q110 -108 110 -259q0 -155 -110 -264t-264 -109q-155 0 -264 109t-109 264zM928 350q0 -107 73 -183q74 -75 179 -75q103 0 176 75q73 76 73 183q0 103 -74 176
q-74 74 -178 74t-177 -74q-72 -73 -72 -176zM48 1177q0 151 109 259q110 108 265 108q154 0 263 -108q110 -108 110 -259q0 -155 -110 -264t-264 -109q-155 0 -264 109t-109 264zM171 1178q0 -107 73 -183q74 -75 179 -75q103 0 176 75q73 76 73 183q0 103 -74 176
q-74 74 -178 74t-177 -74q-72 -73 -72 -176z" />
    <glyph glyph-name="uni0026" unicode="&#x26;" horiz-adv-x="1550" 
d="M465 889v0q-171 160 -171 317q0 146 105 242q106 96 256 96v0q147 0 257 -102q110 -101 110 -233q0 -134 -84 -222q-83 -88 -212 -141v0l283 -285v0l223 429h170l-281 -537v0l377 -373l-109 -105l-343 337v0q-174 -336 -468 -336q-184 0 -324 137q-140 138 -140 334
q0 281 351 442zM569 784v0q-303 -128 -303 -337q0 -136 91 -232q91 -95 221 -95q216 0 358 302v0zM619 950v0q153 73 202 127t49 128q0 85 -63 140t-152 55q-82 0 -146 -53q-63 -53 -63 -142q0 -119 173 -255z" />
    <glyph glyph-name="uni0027" unicode="'" horiz-adv-x="406" 
d="M128 1520h166l-24 -608h-118z" />
    <glyph glyph-name="uni0028" unicode="(" horiz-adv-x="756" 
d="M728 1397v153q-249 -86 -440 -363q-192 -276 -192 -627q0 -333 184 -616q184 -282 448 -374v153q-221 127 -350 369q-130 242 -130 468q0 251 138 483q138 233 342 354z" />
    <glyph glyph-name="uni0029" unicode=")" horiz-adv-x="756" 
d="M28 1397v153q249 -86 440 -363q192 -276 192 -627q0 -333 -184 -616q-184 -282 -448 -374v153q221 127 350 369q130 242 130 468q0 251 -138 483q-138 233 -342 354z" />
    <glyph glyph-name="uni002a" unicode="*" horiz-adv-x="870" 
d="M118 1247l36 113l220 -80l-5 240h124l-5 -240l218 80l38 -113l-220 -74v0l142 -189l-97 -69l-142 192v0l-132 -192l-99 69l140 189v0z" />
    <glyph glyph-name="uni002b" unicode="+" horiz-adv-x="1241" 
d="M112 591h448v448h139v-448h448v-139h-448v-448h-139v448h-448v139z" />
    <glyph glyph-name="uni002c" unicode="," horiz-adv-x="567" 
d="M32 -144l179 400h152l-179 -400h-152z" />
    <glyph glyph-name="uni002d" unicode="-" horiz-adv-x="680" 
d="M64 644h560v-137h-560v137z" />
    <glyph glyph-name="uni002e" unicode="." horiz-adv-x="567" 
d="M208 258h152v-258h-152v258z" />
    <glyph glyph-name="uni002f" unicode="/" horiz-adv-x="895" 
d="M90 -206l575 1726h161l-580 -1726h-156z" />
    <glyph glyph-name="uni0030" unicode="0" 
d="M59 564v401q0 311 154 445q155 134 350 134q232 0 372 -152q140 -151 140 -393v-384q0 -336 -140 -488q-139 -151 -376 -151q-215 0 -358 151q-142 152 -142 437zM211 942v-376q0 -224 88 -339q89 -114 265 -114q359 0 359 465v395q0 194 -92 314q-91 120 -264 120
q-160 0 -258 -116q-98 -115 -98 -349z" />
    <glyph glyph-name="uni0031" unicode="1" 
d="M277 1520h412v-1520h-152v1383h-260v137z" />
    <glyph glyph-name="uni0032" unicode="2" 
d="M83 133l630 609q65 63 129 159q65 97 65 183q0 117 -90 220t-230 103q-139 0 -240 -94q-100 -93 -100 -281v0h-152v0q0 240 134 376q135 136 359 136q195 0 333 -136q138 -135 138 -325q0 -115 -55 -213q-54 -98 -147 -187l-568 -546v0h763v-137h-969v133z" />
    <glyph glyph-name="uni0033" unicode="3" 
d="M69 472h152v0q0 -144 91 -252q92 -107 244 -107q149 0 236 104q88 105 88 242q0 121 -91 231t-298 110h-38v0v133q23 -2 49 -2q137 0 208 70t71 164q0 112 -71 177q-70 65 -163 65q-94 0 -161 -73q-66 -72 -66 -190h-152q0 165 106 282q106 118 277 118q164 0 273 -111
q109 -110 109 -283q0 -154 -156 -278q255 -139 255 -403q0 -212 -139 -353q-138 -140 -339 -140q-199 0 -342 137q-143 138 -143 359v0z" />
    <glyph glyph-name="uni0034" unicode="4" 
d="M28 418l732 1102h180v-1106h137v-137h-137v-277h-152v277h-760v141zM203 414v0h585v907v0z" />
    <glyph glyph-name="uni0035" unicode="5" 
d="M52 472h152v0q0 -145 108 -252q109 -107 242 -107q154 0 263 110q110 111 110 284q0 158 -102 275q-102 118 -260 118q-180 0 -309 -167l-121 43l142 744h674v-137h-553v0l-76 -417q117 71 254 71q216 0 359 -156q144 -156 144 -375q0 -224 -147 -377t-354 -153
q-220 0 -363 139q-143 140 -163 357v0z" />
    <glyph glyph-name="uni0036" unicode="6" 
d="M607 1520h170l-345 -525q83 30 152 30q215 0 356 -156q142 -156 142 -369q0 -222 -145 -373t-367 -151q-232 0 -376 151q-144 152 -144 392q0 179 169 426l388 575v0zM202 497q0 -156 103 -270q104 -114 261 -114q160 0 262 111q102 112 102 273q0 166 -103 278
q-102 113 -261 113q-148 0 -256 -112q-108 -111 -108 -279z" />
    <glyph glyph-name="uni0037" unicode="7" 
d="M225 0l624 1383v0h-721v137h880v-137l-624 -1383h-159z" />
    <glyph glyph-name="uni0038" unicode="8" 
d="M341 846q-55 24 -117 110q-61 86 -61 190q0 172 118 285t289 113q181 0 291 -123q110 -122 110 -275q0 -171 -175 -304q255 -139 255 -409q0 -190 -145 -324q-144 -133 -335 -133q-199 0 -344 136q-144 137 -144 319q0 291 258 415zM235 433q0 -143 102 -232
q103 -88 233 -88q125 0 227 88q102 89 102 232q0 151 -98 243q-97 92 -234 92q-139 0 -236 -93q-96 -93 -96 -242zM315 1146q0 -90 77 -166q77 -75 177 -75q115 0 182 79q68 79 68 162q0 121 -74 191t-176 70q-112 0 -183 -77q-71 -76 -71 -184z" />
    <glyph glyph-name="uni0039" unicode="9" 
d="M696 517v0q-82 -22 -149 -22q-216 0 -357 153q-140 154 -140 372q0 237 157 380q157 144 355 144q243 0 381 -157q139 -157 139 -386q0 -180 -177 -442l-380 -559h-170zM202 1023q0 -164 102 -278q102 -113 262 -113q156 0 260 114q104 115 104 277q0 153 -99 268
q-99 116 -265 116q-153 0 -259 -109q-105 -109 -105 -275z" />
    <glyph glyph-name="uni003a" unicode=":" horiz-adv-x="567" 
d="M208 1122h152v-258h-152v258zM208 258h152v-258h-152v258z" />
    <glyph glyph-name="uni003b" unicode=";" horiz-adv-x="567" 
d="M32 -144l179 400h152l-179 -400h-152zM208 1122h152v-258h-152v258z" />
    <glyph glyph-name="uni003c" unicode="&#x3c;" horiz-adv-x="1241" 
d="M1134 1047l-1040 -464v-126l1040 -464v139l-869 388v0l869 388v139z" />
    <glyph glyph-name="uni003d" unicode="=" horiz-adv-x="1241" 
d="M112 385h1040v-139h-1040v139zM112 796h1040v-139h-1040v139z" />
    <glyph glyph-name="uni003e" unicode="&#x3e;" horiz-adv-x="1241" 
d="M107 1047l1040 -464v-126l-1040 -464v139l869 388v0l-869 388v139z" />
    <glyph glyph-name="uni003f" unicode="?" horiz-adv-x="1210" 
d="M538 258h152v-258h-152v258zM130 1044v42q0 186 141 322q142 136 342 136q199 0 334 -133t135 -326q0 -179 -198 -350q-194 -168 -194 -333h-152q0 231 251 446q141 119 141 243q0 131 -96 219q-95 89 -231 89q-123 0 -222 -89t-99 -214v-52h-152z" />
    <glyph glyph-name="uni0040" unicode="@" horiz-adv-x="1776" 
d="M1642 869q0 -210 -107 -385q-106 -175 -263 -175q-81 0 -125 43q-43 44 -43 117v0q-105 -160 -293 -160q-141 0 -231 107t-90 259q1 197 114 330q114 134 287 134q209 0 265 -192l34 164h122l-88 -455q-24 -126 -24 -139q0 -43 16 -67q17 -24 62 -24q96 0 169 132t73 310
q0 251 -167 405q-166 154 -428 154q-304 0 -490 -197q-185 -197 -185 -474q0 -294 186 -483q186 -188 521 -188q251 0 476 107l33 -107q-235 -117 -517 -117q-379 0 -600 217t-221 571q0 335 226 561q226 227 572 227q318 0 517 -182t199 -493zM1120 795q0 110 -64 171
q-64 62 -142 62q-135 0 -219 -104q-83 -103 -83 -242q0 -121 66 -189q66 -67 164 -67q124 0 201 109q77 110 77 260z" />
    <glyph glyph-name="uni0041" unicode="A" horiz-adv-x="1516" 
d="M24 0l640 1520h170l640 -1520h-166l-218 515v0h-688v0l-219 -515h-159zM459 652v0h575v0l-284 696v0zM743 1640v0v0zM1366 0v0v0zM0 1544v0v0z" />
    <glyph glyph-name="uni0042" unicode="B" horiz-adv-x="1176" 
d="M152 0v1520h378h38q199 0 327 -109q129 -108 129 -284q0 -198 -163 -316q248 -116 248 -380q0 -194 -136 -313q-135 -118 -381 -118h-55h-385zM304 137h219h47q214 0 300 84q87 84 87 214q0 138 -103 216t-314 78h-70h-166v-592zM304 866h226q342 0 342 261
q0 123 -94 189q-93 67 -250 67h-224v-517z" />
    <glyph glyph-name="uni0043" unicode="C" horiz-adv-x="1665" 
d="M1414 392h170q-265 -416 -690 -416q-334 0 -570 226t-236 546q0 338 233 567q234 229 565 229q215 0 403 -115t279 -301v0h-170v0q-86 125 -229 202t-282 77q-268 0 -458 -193q-189 -192 -189 -464q0 -257 194 -447q195 -190 462 -190q299 0 518 279zM903 1640v0v0z
M816 0v0v0z" />
    <glyph glyph-name="uni0044" unicode="D" horiz-adv-x="1524" 
d="M152 0v1520h443q406 0 625 -225q220 -224 220 -541q0 -292 -217 -523q-216 -231 -669 -231h-402zM304 137h231q426 0 589 189q164 189 164 424q0 272 -181 452q-180 181 -557 181h-246v-1246zM705 1640v0v0zM0 1544v0v0z" />
    <glyph glyph-name="uni0045" unicode="E" horiz-adv-x="1098" 
d="M144 0v1520h824v-137h-672v-549h648v-137h-648v-560h672v-137h-824zM537 1640v0v0zM556 0v0v0zM0 1544v0v0z" />
    <glyph glyph-name="uni0046" unicode="F" horiz-adv-x="993" 
d="M144 0v1520h760v-137h-608v-549h584v-137h-584v-697h-152z" />
    <glyph glyph-name="uni0047" unicode="G" horiz-adv-x="1786" 
d="M1611 1112h-180q-97 152 -234 223q-136 72 -313 72q-267 0 -458 -193q-191 -192 -191 -464q0 -264 193 -451q193 -186 454 -186q210 0 395 127t232 319h-842v137h1024q-16 -304 -252 -512t-558 -208t-560 232t-238 540q0 335 234 565q234 231 566 231q241 0 440 -126
t288 -306zM893 1640v0v0zM874 0v0v0z" />
    <glyph glyph-name="uni0048" unicode="H" horiz-adv-x="1399" 
d="M156 1520h152v-670h776v670h152v-1520h-152v713h-776v-713h-152v1520z" />
    <glyph glyph-name="uni0049" unicode="I" horiz-adv-x="463" 
d="M156 1520h152v-1520h-152v1520zM232 1640v0v0zM232 0v0v0zM0 1544v0v0z" />
    <glyph glyph-name="uni004a" unicode="J" horiz-adv-x="987" 
d="M12 360h152q0 -104 75 -176q75 -71 183 -71q246 0 246 319v44v1044h152v-1043v-47q0 -227 -111 -341q-110 -113 -290 -113q-172 0 -290 114q-117 115 -117 270z" />
    <glyph glyph-name="uni004b" unicode="K" horiz-adv-x="1210" 
d="M166 0v1520h152v-879v0l702 879h194l-607 -748v0l607 -772h-189l-513 659v0l-194 -243v-416h-152zM690 0v0v0z" />
    <glyph glyph-name="uni004c" unicode="L" horiz-adv-x="946" 
d="M168 1520h152v-1383h624v-137h-776v1520zM298 1640v0v0zM556 0v0v0zM0 1544v0v0z" />
    <glyph glyph-name="uni004d" unicode="M" horiz-adv-x="1882" 
d="M156 1520h234l550 -1294v0l550 1294h234v-1520h-152v1360v0l-568 -1360h-128l-568 1360v0v-1360h-152v1520z" />
    <glyph glyph-name="uni004e" unicode="N" horiz-adv-x="1516" 
d="M154 1520h204l852 -1265v0v1265h152v-1520h-152l-904 1342v0v-1342h-152v1520zM758 1640v0v0zM758 0v0v0zM0 1544v0v0z" />
    <glyph glyph-name="uni004f" unicode="O" horiz-adv-x="1780" 
d="M88 748q0 338 235 567q236 229 569 229q326 0 565 -230t239 -554q0 -319 -239 -552q-239 -232 -565 -232q-333 0 -569 230q-235 231 -235 542zM240 750q0 -257 191 -447t461 -190q269 0 460 189q192 190 192 458q0 267 -198 457q-197 190 -454 190q-270 0 -461 -193
q-191 -192 -191 -464zM892 1640v0v0z" />
    <glyph glyph-name="uni0050" unicode="P" horiz-adv-x="1212" 
d="M154 1520h391h64q266 0 405 -124q140 -124 140 -331q0 -217 -142 -336t-421 -119h-285v-610h-152v1520zM306 1383v-636h234h86q159 0 267 80q109 81 109 238q0 150 -101 234q-100 84 -311 84h-50h-234z" />
    <glyph glyph-name="uni0051" unicode="Q" horiz-adv-x="1784" 
d="M1723 744q0 -302 -250 -548v0q35 -37 87 -60t131 -23v0v-137v0h-43q-54 0 -119 18t-171 111v0q-209 -129 -453 -129q-334 0 -578 224q-244 225 -244 548q0 345 241 570q242 226 579 226q368 0 594 -235q226 -234 226 -565zM1571 747q0 273 -195 466q-194 194 -468 194
q-279 0 -476 -194t-197 -467q0 -89 26 -173v0q153 53 323 53q434 0 778 -332v0q209 208 209 453zM1242 209v0q-293 280 -681 280q-128 0 -237 -43v0q92 -170 248 -252q157 -81 329 -81q187 0 341 96z" />
    <glyph glyph-name="uni0052" unicode="R" horiz-adv-x="1243" 
d="M1176 1034q0 -174 -121 -313q-120 -139 -329 -151l426 -570h-189l-514 690l166 4q218 6 313 104q96 98 96 236q0 130 -97 239q-97 110 -349 110h-282v-1383h-152v1520h387q199 0 307 -33q186 -59 275 -209q63 -112 63 -244zM543 1640v0v0zM616 0v0v0zM0 1544v0v0z" />
    <glyph glyph-name="uni0053" unicode="S" horiz-adv-x="1020" 
d="M32 424h152v0q0 -128 84 -220q85 -91 228 -91q124 0 218 81q94 82 94 226q0 101 -70 182q-70 82 -300 147q-358 101 -358 391q0 179 124 291q125 113 307 113q179 0 298 -122t119 -294v0h-152v0q0 114 -80 196q-79 83 -190 83q-126 0 -200 -79t-74 -189q0 -96 66 -160
q67 -63 278 -120q384 -104 384 -442q0 -187 -136 -314t-328 -127q-202 0 -333 124t-131 324v0zM501 1640v0v0zM501 0v0v0z" />
    <glyph glyph-name="uni0054" unicode="T" horiz-adv-x="872" 
d="M16 1520h856v-137h-352v-1383h-152v1383h-352v137zM444 1640v0v0zM444 0v0v0zM0 1544v0v0z" />
    <glyph glyph-name="uni0055" unicode="U" horiz-adv-x="1341" 
d="M154 1520h152v-907v-45q0 -215 100 -335t264 -120q150 0 257 106t107 372v929h152v-923v-34q0 -301 -150 -444q-149 -143 -366 -143q-230 0 -373 145q-143 146 -143 445v43v911zM670 1640v0v0zM670 0v0v0zM0 1544v0v0z" />
    <glyph glyph-name="uni0056" unicode="V" horiz-adv-x="1438" 
d="M718 190v0l532 1330h163l-624 -1520h-149l-624 1520h168z" />
    <glyph glyph-name="uni0057" unicode="W" horiz-adv-x="1966" 
d="M16 1520h156l370 -1324v0l370 1324h142l371 -1330v0l371 1330h154l-432 -1520h-192l-344 1253v0l-342 -1253h-192z" />
    <glyph glyph-name="uni0058" unicode="X" horiz-adv-x="1247" 
d="M17 0l515 778v0l-487 742h178l403 -606v0l400 606h175l-488 -742v0l519 -778h-176l-428 647v0l-433 -647h-178z" />
    <glyph glyph-name="uni0059" unicode="Y" horiz-adv-x="1212" 
d="M0 1520h168l433 -855v0l441 855h166l-528 -1015v-505h-152v505zM604 1640v0v0zM0 1544v0v0z" />
    <glyph glyph-name="uni005a" unicode="Z" horiz-adv-x="983" 
d="M24 0v137l742 1246v0h-718v137h888v-137l-739 -1246v0h763v-137h-936zM492 1640v0v0zM0 1544v0v0z" />
    <glyph glyph-name="uni005b" unicode="[" horiz-adv-x="719" 
d="M267 207q0 -447 424 -577v153q-157 72 -214 166q-58 94 -58 256v773q0 304 272 419v153q-424 -139 -424 -572v-771z" />
    <glyph glyph-name="uni005c" unicode="\" horiz-adv-x="1239" 
d="M821 -208l-580 1728h161l575 -1728h-156z" />
    <glyph glyph-name="uni005d" unicode="]" horiz-adv-x="719" 
d="M452 207q0 -447 -424 -577v153q157 72 214 166q58 94 58 256v773q0 304 -272 419v153q424 -139 424 -572v-771z" />
    <glyph glyph-name="uni005e" unicode="^" horiz-adv-x="1241" 
d="M253 625h-144l448 896h130l448 -896h-144l-372 742v0z" />
    <glyph glyph-name="uni005f" unicode="_" horiz-adv-x="1024" 
d="M0 -254v103h1024v-103h-1024z" />
    <glyph glyph-name="uni0060" unicode="`" horiz-adv-x="774" 
d="M144 1487l66 121l414 -219l-69 -117zM382 1312v0v0z" />
    <glyph glyph-name="uni0061" unicode="a" horiz-adv-x="1399" 
d="M1268 1120v-1120h-143v195q-175 -224 -439 -224q-261 0 -431 174t-170 420q0 239 166 411q167 173 435 173q284 0 439 -224v195h143zM685 1020q-190 0 -324 -126q-133 -126 -133 -330q0 -213 131 -339q132 -125 318 -125q196 0 326 135q131 135 131 329q0 192 -130 324
t-319 132zM695 1309v0v0zM1152 0v0v0z" />
    <glyph glyph-name="uni0062" unicode="b" horiz-adv-x="1397" 
d="M139 0v1520h143v-595q45 79 158 151q113 73 285 73q258 0 427 -175q170 -175 170 -414q0 -251 -177 -420q-176 -169 -424 -169q-138 0 -255 60q-116 60 -184 164v-195h-143zM273 556q0 -189 131 -323q132 -133 318 -133q208 0 332 133q125 134 125 323q0 206 -132 335
t-321 129q-192 0 -323 -131q-130 -130 -130 -333z" />
    <glyph glyph-name="uni0063" unicode="c" horiz-adv-x="1325" 
d="M1096 323h152q-179 -352 -578 -352q-227 0 -407 171t-180 413q0 245 179 419q179 175 432 175q199 0 347 -107q148 -106 209 -261v0h-152v0q-148 239 -402 239q-184 0 -327 -125t-143 -342q0 -188 139 -321q139 -132 310 -132q291 0 421 223zM676 1309v0v0zM639 0v0v0z
" />
    <glyph glyph-name="uni0064" unicode="d" horiz-adv-x="1403" 
d="M1121 925v595h143v-1520h-143v195q-170 -224 -439 -224q-249 0 -425 169t-176 420q0 239 167 414q168 175 434 175q154 0 271 -68q118 -68 168 -156zM224 556q0 -195 127 -326q128 -130 330 -130q192 0 320 133q129 134 129 323q0 192 -128 328q-127 136 -321 136
q-190 0 -324 -131q-133 -130 -133 -333z" />
    <glyph glyph-name="uni0065" unicode="e" horiz-adv-x="1331" 
d="M221 507v0q1 -153 133 -280t312 -127q96 0 213 61q118 62 180 210h152q-77 -193 -226 -297q-148 -103 -318 -103q-249 0 -419 176q-170 177 -170 408q0 241 164 417q164 177 424 177q232 0 405 -172q174 -172 174 -427v-43h-1024zM223 636h879v0q-33 183 -158 283
q-125 101 -278 101q-177 0 -305 -117t-138 -267zM675 1309v0v0zM780 0v0v0z" />
    <glyph glyph-name="uni0066" unicode="f" horiz-adv-x="643" 
d="M32 1120h176q0 221 103 324q104 103 328 103v0v-129v0q-150 0 -219 -69t-69 -229h288v-129h-288v-991h-143v991h-176v129z" />
    <glyph glyph-name="uni0067" unicode="g" horiz-adv-x="1378" 
d="M124 -32h152q42 -127 156 -207q115 -80 262 -80q176 0 291 109q115 110 115 311v105q-59 -109 -178 -172t-266 -63q-241 0 -411 171q-169 171 -169 413q0 245 169 419q170 175 411 175q289 0 444 -233v204h143v-962q0 -337 -165 -472q-165 -134 -386 -134
q-216 0 -373 121q-156 121 -195 295zM219 553q0 -190 128 -322q128 -131 310 -131q187 0 319 131q133 132 133 322q0 209 -133 338q-132 129 -319 129q-175 0 -307 -130q-131 -130 -131 -337zM669 1309v0v0z" />
    <glyph glyph-name="uni0068" unicode="h" horiz-adv-x="1249" 
d="M128 1520h143v-547q126 176 348 176q217 0 350 -138q134 -138 134 -401v-610h-143v610q0 198 -96 304t-249 106q-158 0 -251 -106t-93 -304v-610h-143v1520z" />
    <glyph glyph-name="uni0069" unicode="i" horiz-adv-x="410" 
d="M132 1120h143v-1120h-143v1120zM132 1522h143v-258h-143v258zM204 0v0v0z" />
    <glyph glyph-name="uni006a" unicode="j" horiz-adv-x="416" 
d="M280 1264h-143v258h143v-258zM280 75v-47q0 -224 -106 -326q-105 -102 -263 -102v143q226 0 226 328v1049h143v-1045z" />
    <glyph glyph-name="uni006b" unicode="k" horiz-adv-x="1028" 
d="M143 0v1520h143v-1091v0l520 691h184l-441 -569v0l463 -551h-184l-373 437v0l-169 -223v-214h-143zM578 0v0v0z" />
    <glyph glyph-name="uni006c" unicode="l" horiz-adv-x="410" 
d="M132 0v1520h143v-1520h-143zM204 1680v0v0zM204 0v0v0z" />
    <glyph glyph-name="uni006d" unicode="m" horiz-adv-x="1921" 
d="M134 1120h143v-131q97 160 305 160q253 0 375 -208q113 208 373 208q213 0 332 -129t119 -342v-678h-143v634q0 190 -77 288t-223 98q-150 0 -230 -97q-79 -97 -79 -262v-661h-143v653q0 167 -76 267t-229 100q-156 0 -230 -103t-74 -268v-649h-143v1120z" />
    <glyph glyph-name="uni006e" unicode="n" horiz-adv-x="1249" 
d="M132 0v1120h143v-147q126 176 348 176q211 0 347 -135q137 -135 137 -404v-610h-143v610q0 200 -96 305t-249 105q-147 0 -246 -100q-98 -99 -98 -310v-610h-143zM620 1309v0v0zM620 0v0v0z" />
    <glyph glyph-name="uni006f" unicode="o" horiz-adv-x="1341" 
d="M85 555q0 245 169 419q170 175 410 175q250 0 419 -175q169 -174 169 -419q0 -233 -173 -409q-172 -175 -415 -175q-233 0 -406 169q-173 170 -173 415zM228 553q0 -183 126 -318t311 -135q183 0 313 131q131 132 131 322q0 211 -131 339q-130 128 -313 128
q-171 0 -304 -132q-133 -131 -133 -335zM669 1309v0v0z" />
    <glyph glyph-name="uni0070" unicode="p" horiz-adv-x="1397" 
d="M275 925q66 103 177 163q112 61 262 61q260 0 430 -173q171 -173 171 -416q0 -260 -177 -425q-176 -164 -424 -164q-278 0 -439 224v-595h-143v1520h143v-195zM266 560q0 -191 128 -326q128 -134 321 -134q189 0 323 126q134 127 134 334q0 190 -125 325
q-124 135 -332 135q-186 0 -318 -138q-131 -137 -131 -322z" />
    <glyph glyph-name="uni0071" unicode="q" horiz-adv-x="1397" 
d="M1116 925v195h143v-1520h-143v595q-79 -119 -196 -172q-117 -52 -243 -52q-278 0 -440 180q-161 181 -161 409q0 246 174 417q175 172 427 172q149 0 257 -61q109 -60 182 -163zM219 560q0 -202 133 -331q134 -129 324 -129q194 0 321 134q128 135 128 326
q0 186 -132 323t-317 137q-200 0 -329 -131q-128 -130 -128 -329z" />
    <glyph glyph-name="uni0072" unicode="r" horiz-adv-x="616" 
d="M132 0v1120h143v-165q53 106 127 150q75 44 193 44v0v-149v0q-154 -7 -237 -103q-83 -95 -83 -245v-652h-143zM364 1309v0v0zM204 0v0v0z" />
    <glyph glyph-name="uni0073" unicode="s" horiz-adv-x="795" 
d="M44 323h143v0q0 -98 53 -161q54 -62 154 -62q214 0 214 201q0 68 -39 120q-38 52 -186 104q-161 55 -232 129q-71 75 -71 180q0 146 92 230q93 85 225 85q150 0 233 -90q83 -89 83 -214v0h-143v0q0 73 -49 124t-118 51q-81 0 -131 -50q-49 -49 -49 -118q0 -63 50 -111
q51 -47 187 -87q291 -84 291 -339q0 -162 -100 -253q-99 -91 -256 -91q-166 0 -259 103q-92 104 -92 249v0zM397 1309v0v0zM397 0v0v0z" />
    <glyph glyph-name="uni0074" unicode="t" horiz-adv-x="694" 
d="M264 1520h143v-400h272v-129h-272v-991h-143v991h-235v129h235v400zM339 0v0v0z" />
    <glyph glyph-name="uni0075" unicode="u" horiz-adv-x="1245" 
d="M128 1120h143v-610q0 -193 82 -302q82 -108 260 -108q154 0 250 109q97 110 97 301v610h143v-1120h-134v179q-100 -208 -355 -208q-217 0 -352 127q-134 127 -134 412v610zM616 1309v0v0zM993 0v0v0zM0 1149v0v0z" />
    <glyph glyph-name="uni0076" unicode="v" 
d="M571 179v0l408 941h154l-480 -1120h-157l-480 1120h154z" />
    <glyph glyph-name="uni0077" unicode="w" horiz-adv-x="1702" 
d="M27 1120h150l360 -945v0l258 811h125l258 -811v0l362 945h148l-432 -1120h-161l-239 751v0l-236 -751h-161z" />
    <glyph glyph-name="uni0078" unicode="x" horiz-adv-x="983" 
d="M25 0l379 569v0l-379 551h172l291 -433v0l290 433h175l-382 -551v0l382 -569h-170l-293 442v0l-295 -442h-170z" />
    <glyph glyph-name="uni0079" unicode="y" horiz-adv-x="1098" 
d="M31 1120h152l358 -891v0l378 891h152l-648 -1520h-150l194 433v0zM551 1309v0v0zM0 1149v0v0z" />
    <glyph glyph-name="uni007a" unicode="z" horiz-adv-x="870" 
d="M20 0v127l625 864v0h-605v129h780v-127l-619 -864v0h655v-129h-836zM430 1309v0v0zM0 1149v0v0z" />
    <glyph glyph-name="uni007b" unicode="{" horiz-adv-x="719" 
d="M144 634q176 0 176 253v375q0 258 251 258h101v-122h-91q-60 0 -86 -36q-25 -35 -25 -135v-364q0 -230 -176 -291v0q176 -52 176 -270v-384q0 -180 94 -180h108v-122h-126q-226 0 -226 280v346q0 258 -176 258v134z" />
    <glyph glyph-name="uni007c" unicode="|" horiz-adv-x="1376" 
d="M608 -208v1728h152v-1728h-152z" />
    <glyph glyph-name="uni007d" unicode="}" horiz-adv-x="719" 
d="M576 500q-176 0 -176 -242v-362q0 -280 -227 -280h-125v122h94q66 0 87 53q21 54 21 129v382q0 219 176 270v0q-176 61 -176 291v365q0 170 -105 170h-97v122h108q244 0 244 -270v-330q0 -277 176 -286v-134z" />
    <glyph glyph-name="uni007e" unicode="~" horiz-adv-x="1241" 
d="M148 454q89 186 255 186q92 0 238 -72q147 -72 199 -72q61 0 102 50q41 51 76 110l74 -96q-117 -186 -255 -186q-87 0 -221 72q-133 72 -221 72q-103 0 -173 -160z" />
    <glyph glyph-name="uni2592" unicode="&#x2592;" horiz-adv-x="2039" 
d="M345 -171h333v-334h-333v334zM1029 -171h332v-334h-332v334zM1712 -171h327v-334h-327v334zM684 174h339v-339h-339v339zM1367 174h339v-339h-339v339zM0 174h339v-339h-339v339zM1029 514h332v-334h-332v334zM345 514h333v-334h-333v334zM1712 514h327v-334h-327v334z
M0 853h339v-339h-339v339zM1367 853h339v-339h-339v339zM684 853h339v-339h-339v339zM1029 1189h332v-330h-332v330zM1712 1189h327v-330h-327v330zM345 1189h333v-330h-333v330zM684 1534h339v-339h-339v339zM1367 1534h339v-339h-339v339zM0 1534h339v-339h-339v339z" />
    <glyph glyph-name="uni20ac" unicode="&#x20ac;" 
d="M332 953h521l-17 -120h-511v-63v-65h496l-17 -120h-474q14 -209 98 -341q84 -131 234 -131q199 0 279 224h152q-117 -361 -432 -361q-215 0 -335 170t-146 439h-147l17 120h123v51v77h-140l17 120h137q17 267 142 425q125 159 347 166q170 0 284 -95q115 -95 140 -282
h-152q-48 240 -284 240q-139 0 -230 -116q-90 -115 -102 -338z" />
    <glyph glyph-name="glyph100" horiz-adv-x="1022" 
d="M76 0v1137h870v-1137h-870zM332 256h358v625h-358v-625z" />
    <glyph glyph-name="uni201a" unicode="&#x201a;" horiz-adv-x="725" 
d="M182 -137l184 400h152l-184 -400h-152z" />
    <glyph glyph-name="uni0192" unicode="&#x192;" 
d="M-25 -306v0l27 127q56 -12 95 -12q132 0 199 73q68 73 102 256l25 127l153 802v0h-233l27 129h229v0l9 56q42 223 153 325q112 103 249 103q27 0 53 -4l-22 -135h-24q-95 0 -162 -62q-66 -61 -100 -223l-12 -60v0h224l-25 -129h-223v0l-184 -985q-39 -214 -153 -308
q-113 -94 -291 -94q-59 0 -116 14z" />
    <glyph glyph-name="uni201e" unicode="&#x201e;" horiz-adv-x="1028" 
d="M182 -137l187 400h149l-184 -400h-152zM486 -137l184 400h152l-184 -400h-152z" />
    <glyph glyph-name="uni2026" unicode="&#x2026;" horiz-adv-x="2048" 
d="M265 258h152v-258h-152v258zM953 258h152v-258h-152v258zM1641 0v258h152v-258h-152z" />
    <glyph glyph-name="uni2020" unicode="&#x2020;" horiz-adv-x="1133" 
d="M128 1104h368v416h152v-416h368v-137h-368v-1247h-152v1247h-368v137z" />
    <glyph glyph-name="uni2021" unicode="&#x2021;" horiz-adv-x="1133" 
d="M128 1104h368v416h152v-416h368v-137h-368v-694h368v-137h-368v-416h-152v416h-368v137h368v694h-368v137z" />
    <glyph glyph-name="uni02c6" unicode="&#x2c6;" horiz-adv-x="1028" 
d="M144 1312l304 256h135l288 -256h-182l-172 150v0l-186 -150h-187zM502 1312v0v0z" />
    <glyph glyph-name="uni2030" unicode="&#x2030;" horiz-adv-x="2404" 
d="M291 0l868 1520h140l-868 -1520h-140zM803 349q0 151 110 259q111 108 266 108t263 -108t108 -259q0 -155 -108 -264t-263 -109t-266 107q-110 107 -110 266zM926 350q0 -107 75 -183q76 -75 177 -75q107 0 178 75q71 76 71 183q0 109 -74 179q-74 71 -178 71t-177 -74
q-72 -73 -72 -176zM1612 349q0 151 110 259q111 108 266 108t263 -108t108 -259q0 -155 -108 -264t-263 -109t-266 108q-110 109 -110 265zM1735 350q0 -112 74 -185q75 -73 178 -73q105 0 177 75q72 76 72 183q0 109 -74 179q-74 71 -178 71t-177 -74q-72 -73 -72 -176z
M52 1177q0 151 109 259q110 108 265 108q158 0 265 -109q108 -109 108 -258q0 -155 -110 -264t-264 -109q-155 0 -264 109t-109 264zM175 1178q0 -105 70 -182q71 -76 182 -76q108 0 178 78q71 79 71 180q0 107 -74 178q-74 72 -178 72t-177 -74q-72 -73 -72 -176z" />
    <glyph glyph-name="uni0160" unicode="&#x160;" horiz-adv-x="1020" 
d="M32 424h152v0q0 -128 84 -220q85 -91 228 -91q124 0 218 81q94 82 94 226q0 101 -70 182q-70 82 -300 147q-358 101 -358 391q0 179 124 291q125 113 307 113q179 0 298 -122t119 -294v0h-152v0q0 114 -80 196q-79 83 -190 83q-126 0 -200 -79t-74 -189q0 -96 66 -160
q67 -63 278 -120q384 -104 384 -442q0 -187 -136 -314t-328 -127q-202 0 -333 124t-131 324v0zM501 1640v0v0zM501 0v0v0zM862 1896l-288 -256h-135l-304 256h187l186 -150v0l172 150h182zM501 1640v0v0z" />
    <glyph glyph-name="uni2039" unicode="&#x2039;" horiz-adv-x="514" 
d="M82 577l234 -416l118 69l-193 347l193 351l-118 65z" />
    <glyph glyph-name="uni0152" unicode="&#x152;" horiz-adv-x="2445" 
d="M2332 137v-137h-800v328q-230 -352 -647 -352q-326 0 -560 223q-233 223 -233 549q0 345 230 570q231 226 563 226q417 0 647 -336v312h800v-137h-648v-549h624v-137h-624v-560h648zM889 1407q-278 0 -462 -188q-183 -187 -183 -469q0 -262 190 -450q190 -187 455 -187
q267 0 456 189q189 190 189 458q0 267 -187 457q-186 190 -458 190z" />
    <glyph glyph-name="glyph112" horiz-adv-x="1022" 
d="M76 0v1137h870v-1137h-870zM332 256h358v625h-358v-625z" />
    <glyph glyph-name="uni017d" unicode="&#x17d;" horiz-adv-x="983" 
d="M24 0v137l742 1246v0h-718v137h888v-137l-739 -1246v0h763v-137h-936zM492 1640v0v0zM0 1544v0v0zM853 1896l-288 -256h-135l-304 256h187l186 -150v0l172 150h182zM492 1640v0v0z" />
    <glyph glyph-name="glyph114" horiz-adv-x="1022" 
d="M76 0v1137h870v-1137h-870zM332 256h358v625h-358v-625z" />
    <glyph glyph-name="glyph115" horiz-adv-x="1022" 
d="M76 0v1137h870v-1137h-870zM332 256h358v625h-358v-625z" />
    <glyph glyph-name="uni2018" unicode="&#x2018;" horiz-adv-x="719" 
d="M192 1520h152l184 -400h-152z" />
    <glyph glyph-name="uni2019" unicode="&#x2019;" horiz-adv-x="719" 
d="M192 1120l184 400h152l-184 -400h-152z" />
    <glyph glyph-name="uni201c" unicode="&#x201c;" horiz-adv-x="1028" 
d="M535 1120h-152l-184 400h152zM839 1120h-152l-184 400h152z" />
    <glyph glyph-name="uni201d" unicode="&#x201d;" horiz-adv-x="991" 
d="M196 1120l187 400h149l-184 -400h-152zM500 1120l184 400h152l-184 -400h-152z" />
    <glyph glyph-name="uni2022" unicode="&#x2022;" horiz-adv-x="1241" 
d="M306 779q0 133 92 226q92 94 222 94q123 0 216 -93q94 -93 94 -222q0 -135 -93 -230q-92 -95 -219 -95q-130 0 -221 93q-91 94 -91 227z" />
    <glyph glyph-name="uni2013" unicode="&#x2013;" horiz-adv-x="1024" 
d="M71 644h880v-137h-880v137z" />
    <glyph glyph-name="uni2014" unicode="&#x2014;" horiz-adv-x="2048" 
d="M71 644h1904v-137h-1904v137z" />
    <glyph glyph-name="uni02dc" unicode="&#x2dc;" horiz-adv-x="899" 
d="M727 1518l73 -101q-105 -81 -198 -81q-74 0 -162 42q-87 43 -135 43q-36 0 -65 -11q-28 -10 -73 -50l-71 101q97 85 212 85q83 0 161 -43q79 -42 135 -42q30 0 52 10q23 11 71 47zM448 1312v0v0z" />
    <glyph glyph-name="uni2122" unicode="&#x2122;" horiz-adv-x="2048" 
d="M240 608v817h-217v95h545v-95h-217v-817h-111zM685 608v912h156l339 -748v0l335 748h161v-912h-111v773l-337 -773h-95l-337 769v-769h-111z" />
    <glyph glyph-name="uni0161" unicode="&#x161;" horiz-adv-x="795" 
d="M44 323h143v0q0 -98 53 -161q54 -62 154 -62q214 0 214 201q0 68 -39 120q-38 52 -186 104q-161 55 -232 129q-71 75 -71 180q0 146 92 230q93 85 225 85q150 0 233 -90q83 -89 83 -214v0h-143v0q0 73 -49 124t-118 51q-81 0 -131 -50q-49 -49 -49 -118q0 -63 50 -111
q51 -47 187 -87q291 -84 291 -339q0 -162 -100 -253q-99 -91 -256 -91q-166 0 -259 103q-92 104 -92 249v0zM397 1309v0v0zM397 0v0v0zM758 1565l-288 -256h-135l-304 256h187l186 -150v0l172 150h182zM397 1309v0v0z" />
    <glyph glyph-name="uni203a" unicode="&#x203a;" horiz-adv-x="514" 
d="M432 577l-234 -416l-118 69l193 347l-193 351l118 65z" />
    <glyph glyph-name="uni0153" unicode="&#x153;" horiz-adv-x="2329" 
d="M1161 845q170 304 519 304q237 0 408 -172q172 -172 172 -470v0h-1024v0q0 -142 127 -275q128 -132 318 -132q133 0 241 76q109 77 152 195h152q-56 -169 -207 -285q-150 -115 -336 -115q-344 0 -527 304q-60 -118 -193 -211t-300 -93q-256 0 -425 171t-169 413
q0 262 173 428t407 166q342 0 512 -304zM212 553q0 -179 126 -316t311 -137q183 0 313 131q131 132 131 322q0 202 -131 334q-131 133 -313 133q-180 0 -309 -136q-128 -136 -128 -331zM1240 636h877v0q-31 180 -155 282t-280 102q-170 0 -297 -114q-126 -113 -145 -270z
" />
    <glyph glyph-name="glyph128" horiz-adv-x="1022" 
d="M76 0v1137h870v-1137h-870zM332 256h358v625h-358v-625z" />
    <glyph glyph-name="uni017e" unicode="&#x17e;" horiz-adv-x="870" 
d="M20 0v127l625 864v0h-605v129h780v-127l-619 -864v0h655v-129h-836zM430 1309v0v0zM0 1149v0v0zM791 1565l-288 -256h-135l-304 256h187l186 -150v0l172 150h182zM430 1309v0v0z" />
    <glyph glyph-name="uni0178" unicode="&#x178;" horiz-adv-x="1212" 
d="M0 1520h168l433 -855v0l441 855h166l-528 -1015v-505h-152v505zM604 1640v0v0zM0 1544v0v0zM380 1898h152v-258h-152v258zM676 1898h152v-258h-152v258zM604 1640v0v0z" />
    <glyph glyph-name="uni00A0" unicode="&#xa0;" horiz-adv-x="567" 
 />
    <glyph glyph-name="uni00a1" unicode="&#xa1;" horiz-adv-x="604" 
d="M377 727v-1125v0h-152v0v1125h152zM377 1122v-258h-152v258h152z" />
    <glyph glyph-name="uni00a2" unicode="&#xa2;" 
d="M504 1257v194h152v-192q133 -17 236 -97t152 -207h-170q-96 173 -294 173q-138 0 -234 -102q-95 -102 -95 -238q0 -140 98 -240q99 -100 235 -100q196 0 281 141h170q-109 -232 -379 -274v-190h-152v192q-187 31 -296 164q-109 134 -109 310q0 182 117 311
q118 129 288 155z" />
    <glyph glyph-name="uni00a3" unicode="&#xa3;" 
d="M1137 429q0 -203 -143 -316q-142 -113 -388 -113v0h-547v129h303v0q71 99 71 240v0q0 115 -80 205l-133 147v0h-213v129h122v0q-46 72 -46 201q0 209 140 351t339 142v0q206 0 341 -129q136 -128 154 -303h-149q-15 132 -111 217q-96 86 -226 86q-146 0 -241 -105
q-95 -104 -95 -259q0 -123 55 -201v0h591v-129h-464v0q168 -172 168 -352q0 -124 -59 -240v0h70q174 0 281 76q108 77 108 227q0 59 -21 112h152q21 -41 21 -115z" />
    <glyph glyph-name="uni00a4" unicode="&#xa4;" 
d="M11 1089l89 95l199 -203v0q103 86 267 86v0q152 0 255 -87v0l198 204l89 -95l-194 -192v0q88 -116 88 -265v0q0 -140 -88 -263v0l194 -194l-83 -83l-200 191v0q-120 -85 -264 -85v0q-145 0 -260 85v0l-201 -191l-89 83l205 196v0q-88 115 -88 259v0q0 156 89 264v0z
M250 630q0 -130 91 -223q92 -92 222 -92q132 0 224 91q93 92 93 224q0 137 -96 228q-95 92 -221 92q-130 0 -222 -95q-91 -94 -91 -225z" />
    <glyph glyph-name="uni00a5" unicode="&#xa5;" 
d="M648 594h432v-129h-432v-465h-152v465h-432v129h432v119l-36 57v0h-396v129h319v0l-367 621h163l395 -665v0l391 665h163l-366 -621v0h318v-129h-393v0l-39 -57v-119z" />
    <glyph glyph-name="uni00a6" unicode="&#xa6;" horiz-adv-x="1376" 
d="M760 -208h-152v688h152v-688zM608 1520h152v-688h-152v688z" />
    <glyph glyph-name="uni00a7" unicode="&#xa7;" horiz-adv-x="1260" 
d="M227 126v0h152v0q22 -279 262 -279q96 0 161 63q66 64 66 151q0 74 -44 121q-43 48 -146 102l-306 161q-111 60 -154 126q-43 67 -43 147q0 95 60 176t121 117q-82 88 -82 200q0 152 102 245q103 94 258 94q168 0 258 -84t90 -220v0h-152v0q0 167 -194 167
q-102 0 -156 -58q-54 -57 -54 -133q0 -81 36 -120q37 -38 86 -64l344 -178q187 -95 187 -280q0 -164 -165 -281q106 -91 106 -242q0 -156 -117 -252q-117 -95 -261 -95q-184 0 -300 121q-115 122 -115 295zM447 932q-37 -14 -79 -74q-41 -60 -41 -125q0 -67 29 -105t90 -69
l368 -188q113 76 113 208q0 113 -120 173z" />
    <glyph glyph-name="uni00a8" unicode="&#xa8;" horiz-adv-x="756" 
d="M144 1570h152v-258h-152v258zM440 1570h152v-258h-152v258zM368 1312v0v0z" />
    <glyph glyph-name="uni00a9" unicode="&#xa9;" horiz-adv-x="1530" 
d="M761 -26q-310 0 -544 225q-233 226 -233 550q0 325 229 556q230 231 555 231q330 0 556 -231q227 -231 227 -556q0 -321 -235 -548t-555 -227zM95 750q0 -270 188 -470q189 -200 479 -200q280 0 479 196t199 474q0 281 -198 480q-197 200 -475 200q-279 0 -476 -194
q-196 -194 -196 -486zM1168 923h-111q-44 198 -277 198q-151 0 -243 -96q-91 -96 -91 -265q0 -150 84 -256q85 -105 244 -105q240 0 277 198h117q-14 -129 -122 -217q-107 -87 -268 -87q-186 0 -315 124q-128 125 -128 343q0 209 122 338q123 129 321 129q159 0 267 -81
q109 -81 123 -223z" />
    <glyph glyph-name="uni00aa" unicode="&#xaa;" horiz-adv-x="756" 
d="M601 1413v114h123v-670h-123v112q-92 -129 -240 -129q-159 0 -264 105q-104 106 -104 244q0 148 104 251q105 104 264 104q172 0 240 -131zM116 1190q0 -97 72 -166q72 -68 174 -68q105 0 175 67q71 68 71 167q0 98 -71 168q-70 70 -175 70q-102 0 -174 -70t-72 -168z
" />
    <glyph glyph-name="uni00ab" unicode="&#xab;" horiz-adv-x="870" 
d="M320 993l-234 -416l234 -416l118 69l-193 347l193 351zM672 993l-234 -416l234 -416l118 69l-191 347l191 351z" />
    <glyph glyph-name="uni00ac" unicode="&#xac;" horiz-adv-x="1241" 
d="M112 809h1040v-587h-139v448h-901v139z" />
    <glyph glyph-name="uni00ad" unicode="&#xad;" horiz-adv-x="680" 
d="M64 644h560v-137h-560v137z" />
    <glyph glyph-name="uni00ae" unicode="&#xae;" horiz-adv-x="1530" 
d="M767 -26q-319 0 -551 228q-232 229 -232 553q0 317 229 549q230 232 555 232q327 0 555 -231t228 -556q0 -321 -235 -548q-234 -227 -549 -227zM95 750q0 -278 197 -474t476 -196q278 0 475 198q197 199 197 472q0 281 -198 480q-197 200 -475 200q-279 0 -476 -197
q-196 -197 -196 -483zM431 301v903h369q336 0 336 -245q0 -183 -161 -223v0q141 -31 146 -221q6 -189 32 -214h-111q-29 37 -29 148q0 134 -44 183q-43 49 -178 49h-249v-380h-111zM542 1098v-317h243q240 0 240 168q0 149 -214 149h-269z" />
    <glyph glyph-name="uni00af" unicode="&#xaf;" horiz-adv-x="1024" 
d="M0 1766h1024v-103h-1024v103z" />
    <glyph glyph-name="uni00b0" unicode="&#xb0;" horiz-adv-x="819" 
d="M112 1159q0 136 84 217q85 81 207 81q121 0 206 -88q85 -87 85 -208q0 -119 -86 -203t-205 -84q-122 0 -207 84q-84 84 -84 201zM214 1161q0 -77 55 -131q55 -53 134 -53q78 0 133 51q56 51 56 138q0 77 -55 132q-55 56 -133 56t-134 -57q-56 -56 -56 -136z" />
    <glyph glyph-name="uni00b1" unicode="&#xb1;" horiz-adv-x="1241" 
d="M112 98h1035v-139h-1035v139zM112 701h448v368h139v-368h448v-139h-448v-368h-139v368h-448v139z" />
    <glyph glyph-name="uni00b2" unicode="&#xb2;" horiz-adv-x="680" 
d="M32 706q60 61 303 286q134 127 158 168q24 42 24 89q0 68 -52 121t-125 53q-179 0 -179 -225v0h-123v0q0 154 80 245q81 91 226 91q131 0 213 -87q83 -86 83 -196q0 -138 -171 -293l-256 -239v0h425v-111h-606v98z" />
    <glyph glyph-name="uni00b3" unicode="&#xb3;" horiz-adv-x="680" 
d="M37 914h123v0q0 -82 51 -146q51 -63 135 -63q88 0 138 50t50 126q0 74 -50 131t-169 57h-38v0v111v0h43q154 0 154 119q0 50 -38 87q-37 37 -89 37q-57 0 -91 -45q-34 -44 -34 -116h-123q0 117 68 194q68 78 179 78q103 0 177 -68q74 -67 74 -173q0 -88 -83 -162
q143 -99 143 -248q0 -119 -91 -204t-214 -85q-146 0 -231 90q-84 90 -84 230v0z" />
    <glyph glyph-name="uni00b4" unicode="&#xb4;" horiz-adv-x="768" 
d="M160 1389l414 219l66 -121l-411 -215zM340 1312v0v0z" />
    <glyph glyph-name="uni00b5" unicode="&#xb5;" horiz-adv-x="1245" 
d="M1074 1120v-1120h-143v149q-112 -178 -313 -178q-219 0 -312 156v-511h-143v1504h143v-594q0 -199 86 -313q87 -113 227 -113q143 0 227 109q85 109 85 291v18v602h143z" />
    <glyph glyph-name="uni00b6" unicode="&#xb6;" horiz-adv-x="1155" 
d="M496 -224v944q-249 0 -349 124q-99 125 -99 285q0 134 97 258q98 125 340 133h54h592v-117h-134v-1627h-128v1627h-245v-1627h-128z" />
    <glyph glyph-name="uni2219" unicode="&#x2219;" horiz-adv-x="567" 
d="M208 872h152v-258h-152v258z" />
    <glyph glyph-name="uni00b8" unicode="&#xb8;" horiz-adv-x="664" 
d="M160 -307l85 10q28 -83 100 -83q52 0 76 26t24 72q0 47 -28 72q-27 25 -72 25q-60 0 -93 -44l-76 38l83 191h85l-50 -128q23 16 66 16q72 0 120 -49q48 -48 48 -121q0 -77 -54 -126t-130 -49q-153 0 -184 150zM299 0v0v0z" />
    <glyph glyph-name="uni00b9" unicode="&#xb9;" horiz-adv-x="680" 
d="M129 1520h277v-912h-123v801h-154v111z" />
    <glyph glyph-name="uni00ba" unicode="&#xba;" horiz-adv-x="756" 
d="M32 1187q0 152 103 254q103 103 249 103q142 0 244 -105q103 -105 103 -250q0 -140 -103 -245q-103 -104 -241 -104q-153 0 -254 102t-101 245zM155 1186q0 -101 67 -166q68 -64 165 -64q93 0 157 68t64 164q0 106 -65 173q-64 67 -158 67q-93 0 -162 -67
q-68 -67 -68 -175z" />
    <glyph glyph-name="uni00bb" unicode="&#xbb;" horiz-adv-x="870" 
d="M550 993l234 -416l-234 -416l-118 69l193 347l-193 351zM198 993l234 -416l-234 -416l-118 69l191 347l-191 351z" />
    <glyph glyph-name="uni00bc" unicode="&#xbc;" horiz-adv-x="1702" 
d="M205 1520h277v-912h-123v801h-154v111zM382 0l677 1520h123l-677 -1520h-123zM835 264l453 650h123v-639h85v-111h-85v-162h-123v162h-453v100zM987 275v0h301v443v0z" />
    <glyph glyph-name="uni00bd" unicode="&#xbd;" horiz-adv-x="1702" 
d="M166 1520h277v-912h-123v801h-154v111zM343 0l677 1520h123l-677 -1520h-123zM915 100q60 61 303 286q134 127 158 168q24 42 24 89q0 68 -52 121t-125 53q-179 0 -179 -225v0h-123v0q0 154 80 245q81 91 226 91q131 0 213 -87q83 -86 83 -196q0 -138 -171 -293
l-256 -239v0h425v-111h-606v98z" />
    <glyph glyph-name="uni00be" unicode="&#xbe;" horiz-adv-x="1702" 
d="M94 914h123v0q0 -82 51 -146q51 -63 135 -63q88 0 138 50t50 126q0 74 -50 131t-169 57h-38v0v111v0h43q154 0 154 119q0 50 -38 87q-37 37 -89 37q-57 0 -91 -45q-34 -44 -34 -116h-123q0 117 68 194q68 78 179 78q103 0 177 -68q74 -67 74 -173q0 -88 -83 -162
q143 -99 143 -248q0 -119 -91 -204t-214 -85q-146 0 -231 90q-84 90 -84 230v0zM526 0l677 1520h123l-677 -1520h-123zM948 264l453 650h123v-639h85v-111h-85v-162h-123v162h-453v100zM1100 275v0h301v443v0z" />
    <glyph glyph-name="uni00bf" unicode="&#xbf;" horiz-adv-x="1210" 
d="M672 864h-152v258h152v-258zM1080 78v-42q0 -186 -141 -322q-142 -136 -342 -136q-199 0 -334 133t-135 326q0 179 198 350q194 168 194 333h152q0 -231 -251 -446q-141 -119 -141 -243q0 -131 96 -219q95 -89 231 -89q123 0 222 89t99 214v52h152z" />
    <glyph glyph-name="uni00c0" unicode="&#xc0;" horiz-adv-x="1516" 
d="M24 0l640 1520h170l640 -1520h-166l-218 515v0h-688v0l-219 -515h-159zM459 652v0h575v0l-284 696v0zM743 1640v0v0zM1366 0v0v0zM0 1544v0v0zM505 1815l66 121l414 -219l-69 -117zM743 1640v0v0z" />
    <glyph glyph-name="uni00c1" unicode="&#xc1;" horiz-adv-x="1516" 
d="M24 0l640 1520h170l640 -1520h-166l-218 515v0h-688v0l-219 -515h-159zM459 652v0h575v0l-284 696v0zM743 1640v0v0zM1366 0v0v0zM0 1544v0v0zM563 1717l414 219l66 -121l-411 -215zM743 1640v0v0z" />
    <glyph glyph-name="uni00c2" unicode="&#xc2;" horiz-adv-x="1516" 
d="M24 0l640 1520h170l640 -1520h-166l-218 515v0h-688v0l-219 -515h-159zM459 652v0h575v0l-284 696v0zM743 1640v0v0zM1366 0v0v0zM0 1544v0v0zM385 1640l304 256h135l288 -256h-182l-172 150v0l-186 -150h-187zM743 1640v0v0z" />
    <glyph glyph-name="uni00c3" unicode="&#xc3;" horiz-adv-x="1516" 
d="M24 0l640 1520h170l640 -1520h-166l-218 515v0h-688v0l-219 -515h-159zM459 652v0h575v0l-284 696v0zM743 1640v0v0zM1366 0v0v0zM0 1544v0v0zM1022 1846l73 -101q-105 -81 -198 -81q-74 0 -162 42q-87 43 -135 43q-36 0 -65 -11q-28 -10 -73 -50l-71 101q97 85 212 85
q83 0 161 -43q79 -42 135 -42q30 0 52 10q23 11 71 47zM743 1640v0v0z" />
    <glyph glyph-name="uni00c4" unicode="&#xc4;" horiz-adv-x="1516" 
d="M24 0l640 1520h170l640 -1520h-166l-218 515v0h-688v0l-219 -515h-159zM459 652v0h575v0l-284 696v0zM743 1640v0v0zM1366 0v0v0zM0 1544v0v0zM519 1898h152v-258h-152v258zM815 1898h152v-258h-152v258zM743 1640v0v0z" />
    <glyph glyph-name="uni00c5" unicode="&#xc5;" horiz-adv-x="1516" 
d="M24 0l640 1520h170l640 -1520h-166l-218 515v0h-688v0l-219 -515h-159zM459 652v0h575v0l-284 696v0zM743 1640v0v0zM1366 0v0v0zM0 1544v0v0zM531 1774q0 88 62 149q63 62 153 62q88 0 150 -62q62 -61 62 -149q0 -89 -62 -152q-62 -62 -150 -62q-83 0 -149 61
q-66 62 -66 153zM638 1773q0 -46 30 -77q31 -31 77 -31q43 0 74 31q32 31 32 77q0 43 -32 75t-75 32t-75 -32q-31 -32 -31 -75zM743 1640v0v0z" />
    <glyph glyph-name="uni00c6" unicode="&#xc6;" horiz-adv-x="2032" 
d="M-40 0l1056 1520h856v-137h-656v-549h632v-137h-632v-560h656v-137h-808v515h-560v0l-362 -515h-182zM597 652v0h467v678v0z" />
    <glyph glyph-name="uni00c7" unicode="&#xc7;" horiz-adv-x="1665" 
d="M1414 392h170q-265 -416 -690 -416q-334 0 -570 226t-236 546q0 338 233 567q234 229 565 229q215 0 403 -115t279 -301v0h-170v0q-86 125 -229 202t-282 77q-268 0 -458 -193q-189 -192 -189 -464q0 -257 194 -447q195 -190 462 -190q299 0 518 279zM903 1640v0v0z
M816 0v0v0zM677 -307l85 10q28 -83 100 -83q52 0 76 26t24 72q0 47 -28 72q-27 25 -72 25q-60 0 -93 -44l-76 38l83 191h85l-50 -128q23 16 66 16q72 0 120 -49q48 -48 48 -121q0 -77 -54 -126t-130 -49q-153 0 -184 150zM816 0v0v0z" />
    <glyph glyph-name="uni00c8" unicode="&#xc8;" horiz-adv-x="1098" 
d="M144 0v1520h824v-137h-672v-549h648v-137h-648v-560h672v-137h-824zM537 1640v0v0zM556 0v0v0zM0 1544v0v0zM299 1815l66 121l414 -219l-69 -117zM537 1640v0v0z" />
    <glyph glyph-name="uni00c9" unicode="&#xc9;" horiz-adv-x="1098" 
d="M144 0v1520h824v-137h-672v-549h648v-137h-648v-560h672v-137h-824zM537 1640v0v0zM556 0v0v0zM0 1544v0v0zM357 1717l414 219l66 -121l-411 -215zM537 1640v0v0z" />
    <glyph glyph-name="uni00ca" unicode="&#xca;" horiz-adv-x="1098" 
d="M144 0v1520h824v-137h-672v-549h648v-137h-648v-560h672v-137h-824zM537 1640v0v0zM556 0v0v0zM0 1544v0v0zM179 1640l304 256h135l288 -256h-182l-172 150v0l-186 -150h-187zM537 1640v0v0z" />
    <glyph glyph-name="uni00cb" unicode="&#xcb;" horiz-adv-x="1098" 
d="M144 0v1520h824v-137h-672v-549h648v-137h-648v-560h672v-137h-824zM537 1640v0v0zM556 0v0v0zM0 1544v0v0zM313 1898h152v-258h-152v258zM609 1898h152v-258h-152v258zM537 1640v0v0z" />
    <glyph glyph-name="uni00cc" unicode="&#xcc;" horiz-adv-x="463" 
d="M156 1520h152v-1520h-152v1520zM232 1640v0v0zM232 0v0v0zM0 1544v0v0zM-6 1815l66 121l414 -219l-69 -117zM232 1640v0v0z" />
    <glyph glyph-name="uni00cd" unicode="&#xcd;" horiz-adv-x="463" 
d="M156 1520h152v-1520h-152v1520zM232 1640v0v0zM232 0v0v0zM0 1544v0v0zM52 1717l414 219l66 -121l-411 -215zM232 1640v0v0z" />
    <glyph glyph-name="uni00ce" unicode="&#xce;" horiz-adv-x="463" 
d="M156 1520h152v-1520h-152v1520zM232 1640v0v0zM232 0v0v0zM0 1544v0v0zM-126 1640l304 256h135l288 -256h-182l-172 150v0l-186 -150h-187zM232 1640v0v0z" />
    <glyph glyph-name="uni00cf" unicode="&#xcf;" horiz-adv-x="463" 
d="M156 1520h152v-1520h-152v1520zM232 1640v0v0zM232 0v0v0zM0 1544v0v0zM8 1898h152v-258h-152v258zM304 1898h152v-258h-152v258zM232 1640v0v0z" />
    <glyph glyph-name="uni00d0" unicode="&#xd0;" horiz-adv-x="1618" 
d="M246 850v670h443q402 0 623 -225q222 -224 222 -541q0 -298 -212 -526t-663 -228h-413v713h-152v137h152zM398 850h432v-137h-432v-576h231q417 0 585 181q168 182 168 432q0 232 -165 432q-164 201 -573 201h-246v-533z" />
    <glyph glyph-name="uni00d1" unicode="&#xd1;" horiz-adv-x="1516" 
d="M154 1520h204l852 -1265v0v1265h152v-1520h-152l-904 1342v0v-1342h-152v1520zM758 1640v0v0zM758 0v0v0zM0 1544v0v0zM1037 1846l73 -101q-105 -81 -198 -81q-74 0 -162 42q-87 43 -135 43q-36 0 -65 -11q-28 -10 -73 -50l-71 101q97 85 212 85q83 0 161 -43
q79 -42 135 -42q30 0 52 10q23 11 71 47zM758 1640v0v0z" />
    <glyph glyph-name="uni00d2" unicode="&#xd2;" horiz-adv-x="1780" 
d="M88 748q0 338 235 567q236 229 569 229q326 0 565 -230t239 -554q0 -319 -239 -552q-239 -232 -565 -232q-333 0 -569 230q-235 231 -235 542zM240 750q0 -257 191 -447t461 -190q269 0 460 189q192 190 192 458q0 267 -198 457q-197 190 -454 190q-270 0 -461 -193
q-191 -192 -191 -464zM892 1640v0v0zM654 1815l66 121l414 -219l-69 -117zM892 1640v0v0z" />
    <glyph glyph-name="uni00d3" unicode="&#xd3;" horiz-adv-x="1780" 
d="M88 748q0 338 235 567q236 229 569 229q326 0 565 -230t239 -554q0 -319 -239 -552q-239 -232 -565 -232q-333 0 -569 230q-235 231 -235 542zM240 750q0 -257 191 -447t461 -190q269 0 460 189q192 190 192 458q0 267 -198 457q-197 190 -454 190q-270 0 -461 -193
q-191 -192 -191 -464zM892 1640v0v0zM712 1717l414 219l66 -121l-411 -215zM892 1640v0v0z" />
    <glyph glyph-name="uni00d4" unicode="&#xd4;" horiz-adv-x="1780" 
d="M88 748q0 338 235 567q236 229 569 229q326 0 565 -230t239 -554q0 -319 -239 -552q-239 -232 -565 -232q-333 0 -569 230q-235 231 -235 542zM240 750q0 -257 191 -447t461 -190q269 0 460 189q192 190 192 458q0 267 -198 457q-197 190 -454 190q-270 0 -461 -193
q-191 -192 -191 -464zM892 1640v0v0zM534 1640l304 256h135l288 -256h-182l-172 150v0l-186 -150h-187zM892 1640v0v0z" />
    <glyph glyph-name="uni00d5" unicode="&#xd5;" horiz-adv-x="1780" 
d="M88 748q0 338 235 567q236 229 569 229q326 0 565 -230t239 -554q0 -319 -239 -552q-239 -232 -565 -232q-333 0 -569 230q-235 231 -235 542zM240 750q0 -257 191 -447t461 -190q269 0 460 189q192 190 192 458q0 267 -198 457q-197 190 -454 190q-270 0 -461 -193
q-191 -192 -191 -464zM892 1640v0v0zM1171 1846l73 -101q-105 -81 -198 -81q-74 0 -162 42q-87 43 -135 43q-36 0 -65 -11q-28 -10 -73 -50l-71 101q97 85 212 85q83 0 161 -43q79 -42 135 -42q30 0 52 10q23 11 71 47zM892 1640v0v0z" />
    <glyph glyph-name="uni00d6" unicode="&#xd6;" horiz-adv-x="1780" 
d="M88 748q0 338 235 567q236 229 569 229q326 0 565 -230t239 -554q0 -319 -239 -552q-239 -232 -565 -232q-333 0 -569 230q-235 231 -235 542zM240 750q0 -257 191 -447t461 -190q269 0 460 189q192 190 192 458q0 267 -198 457q-197 190 -454 190q-270 0 -461 -193
q-191 -192 -191 -464zM892 1640v0v0zM668 1898h152v-258h-152v258zM964 1898h152v-258h-152v258zM892 1640v0v0z" />
    <glyph glyph-name="uni00d7" unicode="&#xd7;" horiz-adv-x="1241" 
d="M242 48l-98 98l373 374v0l-373 374l98 98l375 -370v0l373 370l98 -98l-373 -374v0l373 -374l-98 -98l-374 373v0z" />
    <glyph glyph-name="uni00d8" unicode="&#xd8;" horiz-adv-x="1778" 
d="M1312 1426v0l187 253l114 -81l-184 -256v0q267 -239 267 -587q0 -323 -241 -551t-564 -228q-204 0 -414 113v0l-192 -257l-114 81l192 257v0q-275 240 -275 592q0 323 235 552q236 230 569 230q211 0 420 -118zM1223 1314v0q-164 93 -334 93q-269 0 -459 -191
q-190 -190 -190 -459q0 -268 205 -469v0zM1336 1231v0l-776 -1027v0q159 -91 331 -91q270 0 461 191q192 192 192 455q0 271 -208 472z" />
    <glyph glyph-name="uni00d9" unicode="&#xd9;" horiz-adv-x="1341" 
d="M154 1520h152v-907v-45q0 -215 100 -335t264 -120q150 0 257 106t107 372v929h152v-923v-34q0 -301 -150 -444q-149 -143 -366 -143q-230 0 -373 145q-143 146 -143 445v43v911zM670 1640v0v0zM670 0v0v0zM0 1544v0v0zM432 1815l66 121l414 -219l-69 -117zM670 1640v0v0z
" />
    <glyph glyph-name="uni00da" unicode="&#xda;" horiz-adv-x="1341" 
d="M154 1520h152v-907v-45q0 -215 100 -335t264 -120q150 0 257 106t107 372v929h152v-923v-34q0 -301 -150 -444q-149 -143 -366 -143q-230 0 -373 145q-143 146 -143 445v43v911zM670 1640v0v0zM670 0v0v0zM0 1544v0v0zM490 1717l414 219l66 -121l-411 -215zM670 1640v0v0
z" />
    <glyph glyph-name="uni00db" unicode="&#xdb;" horiz-adv-x="1341" 
d="M154 1520h152v-907v-45q0 -215 100 -335t264 -120q150 0 257 106t107 372v929h152v-923v-34q0 -301 -150 -444q-149 -143 -366 -143q-230 0 -373 145q-143 146 -143 445v43v911zM670 1640v0v0zM670 0v0v0zM0 1544v0v0zM312 1640l304 256h135l288 -256h-182l-172 150v0
l-186 -150h-187zM670 1640v0v0z" />
    <glyph glyph-name="uni00dc" unicode="&#xdc;" horiz-adv-x="1341" 
d="M154 1520h152v-907v-45q0 -215 100 -335t264 -120q150 0 257 106t107 372v929h152v-923v-34q0 -301 -150 -444q-149 -143 -366 -143q-230 0 -373 145q-143 146 -143 445v43v911zM670 1640v0v0zM670 0v0v0zM0 1544v0v0zM446 1898h152v-258h-152v258zM742 1898h152v-258
h-152v258zM670 1640v0v0z" />
    <glyph glyph-name="uni00dd" unicode="&#xdd;" horiz-adv-x="1212" 
d="M0 1520h168l433 -855v0l441 855h166l-528 -1015v-505h-152v505zM604 1640v0v0zM0 1544v0v0zM424 1717l414 219l66 -121l-411 -215zM604 1640v0v0z" />
    <glyph glyph-name="uni00de" unicode="&#xde;" horiz-adv-x="1212" 
d="M275 1212h239q321 0 465 -119q144 -118 144 -333q0 -217 -145 -334q-144 -117 -418 -117h-285v-309h-152v1520h152v-308zM275 1075v-629h234h66q396 0 396 315q0 141 -102 227q-102 87 -328 87h-32h-234z" />
    <glyph glyph-name="uni00df" unicode="&#xdf;" 
d="M1079 401q0 -200 -125 -315t-300 -115q-285 0 -386 256v-227h-143v1015q0 288 125 410q126 122 302 122q187 0 303 -126q117 -125 117 -302q0 -241 -181 -327q288 -109 288 -391zM936 388q0 312 -397 312h-79v129q369 0 369 292q0 125 -73 211q-72 86 -203 86
q-285 0 -285 -402v-597h105q0 -143 80 -231t202 -88q115 0 198 84t83 204z" />
    <glyph glyph-name="uni00e0" unicode="&#xe0;" horiz-adv-x="1399" 
d="M1268 1120v-1120h-143v195q-175 -224 -439 -224q-261 0 -431 174t-170 420q0 239 166 411q167 173 435 173q284 0 439 -224v195h143zM685 1020q-190 0 -324 -126q-133 -126 -133 -330q0 -213 131 -339q132 -125 318 -125q196 0 326 135q131 135 131 329q0 192 -130 324
t-319 132zM695 1309v0v0zM1152 0v0v0zM457 1484l66 121l414 -219l-69 -117zM695 1309v0v0z" />
    <glyph glyph-name="uni00e1" unicode="&#xe1;" horiz-adv-x="1399" 
d="M1268 1120v-1120h-143v195q-175 -224 -439 -224q-261 0 -431 174t-170 420q0 239 166 411q167 173 435 173q284 0 439 -224v195h143zM685 1020q-190 0 -324 -126q-133 -126 -133 -330q0 -213 131 -339q132 -125 318 -125q196 0 326 135q131 135 131 329q0 192 -130 324
t-319 132zM695 1309v0v0zM1152 0v0v0zM515 1386l414 219l66 -121l-411 -215zM695 1309v0v0z" />
    <glyph glyph-name="uni00e2" unicode="&#xe2;" horiz-adv-x="1399" 
d="M1268 1120v-1120h-143v195q-175 -224 -439 -224q-261 0 -431 174t-170 420q0 239 166 411q167 173 435 173q284 0 439 -224v195h143zM685 1020q-190 0 -324 -126q-133 -126 -133 -330q0 -213 131 -339q132 -125 318 -125q196 0 326 135q131 135 131 329q0 192 -130 324
t-319 132zM695 1309v0v0zM1152 0v0v0zM337 1309l304 256h135l288 -256h-182l-172 150v0l-186 -150h-187zM695 1309v0v0z" />
    <glyph glyph-name="uni00e3" unicode="&#xe3;" horiz-adv-x="1399" 
d="M1268 1120v-1120h-143v195q-175 -224 -439 -224q-261 0 -431 174t-170 420q0 239 166 411q167 173 435 173q284 0 439 -224v195h143zM685 1020q-190 0 -324 -126q-133 -126 -133 -330q0 -213 131 -339q132 -125 318 -125q196 0 326 135q131 135 131 329q0 192 -130 324
t-319 132zM695 1309v0v0zM1152 0v0v0zM974 1515l73 -101q-105 -81 -198 -81q-74 0 -162 42q-87 43 -135 43q-36 0 -65 -11q-28 -10 -73 -50l-71 101q97 85 212 85q83 0 161 -43q79 -42 135 -42q30 0 52 10q23 11 71 47zM695 1309v0v0z" />
    <glyph glyph-name="uni00e4" unicode="&#xe4;" horiz-adv-x="1399" 
d="M1268 1120v-1120h-143v195q-175 -224 -439 -224q-261 0 -431 174t-170 420q0 239 166 411q167 173 435 173q284 0 439 -224v195h143zM685 1020q-190 0 -324 -126q-133 -126 -133 -330q0 -213 131 -339q132 -125 318 -125q196 0 326 135q131 135 131 329q0 192 -130 324
t-319 132zM695 1309v0v0zM1152 0v0v0zM471 1567h152v-258h-152v258zM767 1567h152v-258h-152v258zM695 1309v0v0z" />
    <glyph glyph-name="uni00e5" unicode="&#xe5;" horiz-adv-x="1399" 
d="M1268 1120v-1120h-143v195q-175 -224 -439 -224q-261 0 -431 174t-170 420q0 239 166 411q167 173 435 173q284 0 439 -224v195h143zM685 1020q-190 0 -324 -126q-133 -126 -133 -330q0 -213 131 -339q132 -125 318 -125q196 0 326 135q131 135 131 329q0 192 -130 324
t-319 132zM695 1309v0v0zM1152 0v0v0zM483 1443q0 88 62 149q63 62 153 62q88 0 150 -62q62 -61 62 -149q0 -89 -62 -152q-62 -62 -150 -62q-83 0 -149 61q-66 62 -66 153zM590 1442q0 -46 30 -77q31 -31 77 -31q43 0 74 31q32 31 32 77q0 43 -32 75t-75 32t-75 -32
q-31 -32 -31 -75zM695 1309v0v0z" />
    <glyph glyph-name="uni00e6" unicode="&#xe6;" horiz-adv-x="2370" 
d="M1252 1120v-211q168 240 444 240q224 0 402 -162t178 -486v0h-1015q0 -145 126 -273q127 -128 309 -128q148 0 261 86q114 86 135 169h148q-65 -183 -215 -284q-149 -100 -333 -100q-275 0 -440 240v-211h-143v195q-145 -224 -451 -224q-251 0 -420 172
q-169 173 -169 422q0 232 166 408q167 176 423 176q308 0 451 -240v211h143zM2133 630q-31 176 -149 283q-117 107 -287 107q-172 0 -299 -116q-126 -115 -137 -274h872zM660 1020q-186 0 -317 -139t-131 -317q0 -189 129 -327q130 -137 319 -137q197 0 326 133
q130 133 130 331q0 190 -128 323q-127 133 -328 133z" />
    <glyph glyph-name="uni00e7" unicode="&#xe7;" horiz-adv-x="1325" 
d="M1096 323h152q-179 -352 -578 -352q-227 0 -407 171t-180 413q0 245 179 419q179 175 432 175q199 0 347 -107q148 -106 209 -261v0h-152v0q-148 239 -402 239q-184 0 -327 -125t-143 -342q0 -188 139 -321q139 -132 310 -132q291 0 421 223zM676 1309v0v0zM639 0v0v0z
M500 -307l85 10q28 -83 100 -83q52 0 76 26t24 72q0 47 -28 72q-27 25 -72 25q-60 0 -93 -44l-76 38l83 191h85l-50 -128q23 16 66 16q72 0 120 -49q48 -48 48 -121q0 -77 -54 -126t-130 -49q-153 0 -184 150zM639 0v0v0z" />
    <glyph glyph-name="uni00e8" unicode="&#xe8;" horiz-adv-x="1331" 
d="M221 507v0q1 -153 133 -280t312 -127q96 0 213 61q118 62 180 210h152q-77 -193 -226 -297q-148 -103 -318 -103q-249 0 -419 176q-170 177 -170 408q0 241 164 417q164 177 424 177q232 0 405 -172q174 -172 174 -427v-43h-1024zM223 636h879v0q-33 183 -158 283
q-125 101 -278 101q-177 0 -305 -117t-138 -267zM675 1309v0v0zM780 0v0v0zM437 1484l66 121l414 -219l-69 -117zM675 1309v0v0z" />
    <glyph glyph-name="uni00e9" unicode="&#xe9;" horiz-adv-x="1331" 
d="M221 507v0q1 -153 133 -280t312 -127q96 0 213 61q118 62 180 210h152q-77 -193 -226 -297q-148 -103 -318 -103q-249 0 -419 176q-170 177 -170 408q0 241 164 417q164 177 424 177q232 0 405 -172q174 -172 174 -427v-43h-1024zM223 636h879v0q-33 183 -158 283
q-125 101 -278 101q-177 0 -305 -117t-138 -267zM675 1309v0v0zM780 0v0v0zM495 1386l414 219l66 -121l-411 -215zM675 1309v0v0z" />
    <glyph glyph-name="uni00ea" unicode="&#xea;" horiz-adv-x="1331" 
d="M221 507v0q1 -153 133 -280t312 -127q96 0 213 61q118 62 180 210h152q-77 -193 -226 -297q-148 -103 -318 -103q-249 0 -419 176q-170 177 -170 408q0 241 164 417q164 177 424 177q232 0 405 -172q174 -172 174 -427v-43h-1024zM223 636h879v0q-33 183 -158 283
q-125 101 -278 101q-177 0 -305 -117t-138 -267zM675 1309v0v0zM780 0v0v0zM317 1309l304 256h135l288 -256h-182l-172 150v0l-186 -150h-187zM675 1309v0v0z" />
    <glyph glyph-name="uni00eb" unicode="&#xeb;" horiz-adv-x="1331" 
d="M221 507v0q1 -153 133 -280t312 -127q96 0 213 61q118 62 180 210h152q-77 -193 -226 -297q-148 -103 -318 -103q-249 0 -419 176q-170 177 -170 408q0 241 164 417q164 177 424 177q232 0 405 -172q174 -172 174 -427v-43h-1024zM223 636h879v0q-33 183 -158 283
q-125 101 -278 101q-177 0 -305 -117t-138 -267zM675 1309v0v0zM780 0v0v0zM451 1567h152v-258h-152v258zM747 1567h152v-258h-152v258zM675 1309v0v0z" />
    <glyph glyph-name="uni00ec" unicode="&#xec;" horiz-adv-x="410" 
d="M132 1120h143v-1120h-143v1120zM204 1309v0v0zM0 1149v0v0zM-34 1484l66 121l414 -219l-69 -117zM204 1309v0v0z" />
    <glyph glyph-name="uni00ed" unicode="&#xed;" horiz-adv-x="410" 
d="M132 1120h143v-1120h-143v1120zM204 1309v0v0zM0 1149v0v0zM24 1386l414 219l66 -121l-411 -215zM204 1309v0v0z" />
    <glyph glyph-name="uni00ee" unicode="&#xee;" horiz-adv-x="410" 
d="M132 1120h143v-1120h-143v1120zM204 1309v0v0zM0 1149v0v0zM-154 1309l304 256h135l288 -256h-182l-172 150v0l-186 -150h-187zM204 1309v0v0z" />
    <glyph glyph-name="uni00ef" unicode="&#xef;" horiz-adv-x="410" 
d="M132 1120h143v-1120h-143v1120zM204 1309v0v0zM0 1149v0v0zM-20 1567h152v-258h-152v258zM276 1567h152v-258h-152v258zM204 1309v0v0z" />
    <glyph glyph-name="uni00f0" unicode="&#xf0;" horiz-adv-x="1341" 
d="M532 1369v0q-72 36 -239 99l157 68q100 -25 246 -104v0l277 104l98 -76l-258 -100v0q231 -171 335 -356t104 -453q0 -241 -169 -411q-169 -169 -419 -169q-238 0 -409 172q-170 172 -170 412q0 257 172 425q173 169 406 169q170 0 303 -106q-59 82 -137 144t-173 117v0
l-318 -123l-103 80zM228 556q0 -189 128 -323q129 -133 309 -133q182 0 313 135t131 321q0 213 -131 338q-130 126 -313 126q-197 0 -317 -133q-120 -132 -120 -331z" />
    <glyph glyph-name="uni00f1" unicode="&#xf1;" horiz-adv-x="1249" 
d="M132 0v1120h143v-147q126 176 348 176q211 0 347 -135q137 -135 137 -404v-610h-143v610q0 200 -96 305t-249 105q-147 0 -246 -100q-98 -99 -98 -310v-610h-143zM620 1309v0v0zM620 0v0v0zM899 1515l73 -101q-105 -81 -198 -81q-74 0 -162 42q-87 43 -135 43
q-36 0 -65 -11q-28 -10 -73 -50l-71 101q97 85 212 85q83 0 161 -43q79 -42 135 -42q30 0 52 10q23 11 71 47zM620 1309v0v0z" />
    <glyph glyph-name="uni00f2" unicode="&#xf2;" horiz-adv-x="1341" 
d="M85 555q0 245 169 419q170 175 410 175q250 0 419 -175q169 -174 169 -419q0 -233 -173 -409q-172 -175 -415 -175q-233 0 -406 169q-173 170 -173 415zM228 553q0 -183 126 -318t311 -135q183 0 313 131q131 132 131 322q0 211 -131 339q-130 128 -313 128
q-171 0 -304 -132q-133 -131 -133 -335zM669 1309v0v0zM431 1484l66 121l414 -219l-69 -117zM669 1309v0v0z" />
    <glyph glyph-name="uni00f3" unicode="&#xf3;" horiz-adv-x="1341" 
d="M85 555q0 245 169 419q170 175 410 175q250 0 419 -175q169 -174 169 -419q0 -233 -173 -409q-172 -175 -415 -175q-233 0 -406 169q-173 170 -173 415zM228 553q0 -183 126 -318t311 -135q183 0 313 131q131 132 131 322q0 211 -131 339q-130 128 -313 128
q-171 0 -304 -132q-133 -131 -133 -335zM669 1309v0v0zM489 1386l414 219l66 -121l-411 -215zM669 1309v0v0z" />
    <glyph glyph-name="uni00f4" unicode="&#xf4;" horiz-adv-x="1341" 
d="M85 555q0 245 169 419q170 175 410 175q250 0 419 -175q169 -174 169 -419q0 -233 -173 -409q-172 -175 -415 -175q-233 0 -406 169q-173 170 -173 415zM228 553q0 -183 126 -318t311 -135q183 0 313 131q131 132 131 322q0 211 -131 339q-130 128 -313 128
q-171 0 -304 -132q-133 -131 -133 -335zM669 1309v0v0zM311 1309l304 256h135l288 -256h-182l-172 150v0l-186 -150h-187zM669 1309v0v0z" />
    <glyph glyph-name="uni00f5" unicode="&#xf5;" horiz-adv-x="1341" 
d="M85 555q0 245 169 419q170 175 410 175q250 0 419 -175q169 -174 169 -419q0 -233 -173 -409q-172 -175 -415 -175q-233 0 -406 169q-173 170 -173 415zM228 553q0 -183 126 -318t311 -135q183 0 313 131q131 132 131 322q0 211 -131 339q-130 128 -313 128
q-171 0 -304 -132q-133 -131 -133 -335zM669 1309v0v0zM948 1515l73 -101q-105 -81 -198 -81q-74 0 -162 42q-87 43 -135 43q-36 0 -65 -11q-28 -10 -73 -50l-71 101q97 85 212 85q83 0 161 -43q79 -42 135 -42q30 0 52 10q23 11 71 47zM669 1309v0v0z" />
    <glyph glyph-name="uni00f6" unicode="&#xf6;" horiz-adv-x="1341" 
d="M85 555q0 245 169 419q170 175 410 175q250 0 419 -175q169 -174 169 -419q0 -233 -173 -409q-172 -175 -415 -175q-233 0 -406 169q-173 170 -173 415zM228 553q0 -183 126 -318t311 -135q183 0 313 131q131 132 131 322q0 211 -131 339q-130 128 -313 128
q-171 0 -304 -132q-133 -131 -133 -335zM669 1309v0v0zM445 1567h152v-258h-152v258zM741 1567h152v-258h-152v258zM669 1309v0v0z" />
    <glyph glyph-name="uni00f7" unicode="&#xf7;" horiz-adv-x="1241" 
d="M552 815v256h152v-256h-152zM1152 452h-1048v139h1048v-139zM552 -28v256h152v-256h-152z" />
    <glyph glyph-name="uni00f8" unicode="&#xf8;" horiz-adv-x="1337" 
d="M261 137v0q-178 180 -178 425q0 243 169 415q170 172 415 172q75 0 147 -21q73 -20 143 -63v0l147 196l112 -84l-144 -195v0q178 -177 178 -422q0 -233 -168 -411t-413 -178q-165 0 -294 88v0l-151 -200l-110 78zM988 873v0l-535 -709v0q104 -64 215 -64q181 0 310 135
t129 327q0 179 -119 311zM346 247v0l530 710v0q-53 33 -106 48q-52 15 -100 15q-181 0 -313 -132q-131 -132 -131 -327q0 -183 120 -314z" />
    <glyph glyph-name="uni00f9" unicode="&#xf9;" horiz-adv-x="1245" 
d="M128 1120h143v-610q0 -193 82 -302q82 -108 260 -108q154 0 250 109q97 110 97 301v610h143v-1120h-134v179q-100 -208 -355 -208q-217 0 -352 127q-134 127 -134 412v610zM616 1309v0v0zM993 0v0v0zM0 1149v0v0zM378 1484l66 121l414 -219l-69 -117zM616 1309v0v0z" />
    <glyph glyph-name="uni00fa" unicode="&#xfa;" horiz-adv-x="1245" 
d="M128 1120h143v-610q0 -193 82 -302q82 -108 260 -108q154 0 250 109q97 110 97 301v610h143v-1120h-134v179q-100 -208 -355 -208q-217 0 -352 127q-134 127 -134 412v610zM616 1309v0v0zM993 0v0v0zM0 1149v0v0zM436 1386l414 219l66 -121l-411 -215zM616 1309v0v0z" />
    <glyph glyph-name="uni00fb" unicode="&#xfb;" horiz-adv-x="1245" 
d="M128 1120h143v-610q0 -193 82 -302q82 -108 260 -108q154 0 250 109q97 110 97 301v610h143v-1120h-134v179q-100 -208 -355 -208q-217 0 -352 127q-134 127 -134 412v610zM616 1309v0v0zM993 0v0v0zM0 1149v0v0zM258 1309l304 256h135l288 -256h-182l-172 150v0
l-186 -150h-187zM616 1309v0v0z" />
    <glyph glyph-name="uni00fc" unicode="&#xfc;" horiz-adv-x="1245" 
d="M128 1120h143v-610q0 -193 82 -302q82 -108 260 -108q154 0 250 109q97 110 97 301v610h143v-1120h-134v179q-100 -208 -355 -208q-217 0 -352 127q-134 127 -134 412v610zM616 1309v0v0zM993 0v0v0zM0 1149v0v0zM392 1567h152v-258h-152v258zM688 1567h152v-258h-152
v258zM616 1309v0v0z" />
    <glyph glyph-name="uni00fd" unicode="&#xfd;" horiz-adv-x="1098" 
d="M31 1120h152l358 -891v0l378 891h152l-648 -1520h-150l194 433v0zM551 1309v0v0zM0 1149v0v0zM371 1386l414 219l66 -121l-411 -215zM551 1309v0v0z" />
    <glyph glyph-name="uni00fe" unicode="&#xfe;" horiz-adv-x="1397" 
d="M275 925q60 94 172 159t267 65q265 0 433 -173t168 -416q0 -244 -171 -417q-170 -172 -430 -172q-133 0 -252 58t-187 166v-595h-143v1920h143v-595zM266 560q0 -198 131 -329q132 -131 318 -131q189 0 323 127q134 128 134 333q0 204 -137 332t-320 128
q-186 0 -318 -138q-131 -137 -131 -322z" />
    <glyph glyph-name="uni00ff" unicode="&#xff;" horiz-adv-x="1098" 
d="M31 1120h152l358 -891v0l378 891h152l-648 -1520h-150l194 433v0zM551 1309v0v0zM0 1149v0v0zM327 1567h152v-258h-152v258zM623 1567h152v-258h-152v258zM551 1309v0v0z" />
    <glyph glyph-name="glyph227" horiz-adv-x="1028" 
d="M855 1568l-288 -256h-135l-304 256h187l186 -150v0l172 150h182zM494 1312v0v0z" />
    <glyph glyph-name="glyph228" horiz-adv-x="340" 
d="M-224 0l677 1520h123l-677 -1520h-123z" />
    <glyph glyph-name="glyph229" horiz-adv-x="680" 
d="M16 870l453 650h123v-639h85v-111h-85v-162h-123v162h-453v100zM168 881v0h301v443v0z" />
    <glyph glyph-name="glyph230" horiz-adv-x="680" 
d="M128 1446q0 88 62 149q63 62 153 62q88 0 150 -62q62 -61 62 -149q0 -89 -62 -152q-62 -62 -150 -62q-83 0 -149 61q-66 62 -66 153zM235 1445q0 -46 30 -77q31 -31 77 -31q43 0 74 31q32 31 32 77q0 43 -32 75t-75 32t-75 -32q-31 -32 -31 -75zM340 1312v0v0z" />
    <glyph glyph-name="glyph231" horiz-adv-x="410" 
d="M132 1120h143v-1120h-143v1120zM204 1309v0v0zM0 1149v0v0z" />
  </font>
</defs>
</svg>
